<?xml version="1.0" standalone="no"?>
<!DOCTYPE svg PUBLIC "-//W3C//DTD SVG 20010904//EN"
 "http://www.w3.org/TR/2001/REC-SVG-20010904/DTD/svg10.dtd">
<svg version="1.0" xmlns="http://www.w3.org/2000/svg"
 width="58px" height="58px" viewBox="0 0 630.000000 630.000000"
 preserveAspectRatio="xMidYMid meet">

<g transform="translate(0.000000,630.000000) scale(0.100000,-0.100000)"
fill="#000000" stroke="none">
<path d="M0 3150 l0 -3150 3150 0 3150 0 0 3150 0 3150 -3150 0 -3150 0 0
-3150z m2110 2531 c52 -10 167 -42 255 -71 189 -61 303 -87 416 -96 107 -8
178 6 287 55 172 77 334 110 377 78 17 -13 18 -18 7 -38 -8 -13 -52 -55 -99
-94 -338 -274 -500 -547 -533 -895 -11 -114 -5 -203 29 -445 164 -1165 24
-2093 -404 -2690 -64 -88 -56 -89 59 -7 400 287 672 702 751 1149 36 205 32
374 -25 933 -46 458 -53 576 -47 840 6 316 34 473 118 675 84 203 276 399 475
486 197 86 474 139 728 139 l79 0 -6 -37 c-9 -56 -41 -78 -131 -92 -316 -47
-486 -266 -515 -663 -9 -134 -8 -158 26 -573 31 -372 38 -877 15 -1065 -21
-168 -68 -385 -112 -520 -49 -148 -165 -391 -245 -510 -126 -188 -336 -414
-517 -555 -42 -33 -75 -61 -73 -63 1 -2 38 6 81 17 241 61 556 110 764 118
274 10 386 -21 750 -206 476 -243 444 -232 518 -177 28 20 66 43 86 51 44 19
116 19 140 2 25 -19 17 -33 -113 -186 -329 -389 -618 -651 -719 -651 -11 0
-68 34 -127 76 -485 344 -931 475 -1446 424 -258 -26 -576 -93 -846 -181 -154
-49 -432 -158 -526 -206 -38 -19 -78 -33 -89 -31 -34 5 -63 54 -62 103 1 63
39 114 127 174 339 229 575 507 649 767 28 101 30 267 4 364 -41 152 -163 313
-288 381 -60 32 -68 34 -163 34 -108 0 -125 5 -125 37 0 110 243 199 463 170
45 -7 93 -15 106 -18 l24 -7 -6 86 c-10 138 -63 273 -141 355 -79 84 -170 117
-346 127 -230 12 -320 34 -320 78 0 31 71 110 142 159 168 114 366 159 547
124 47 -8 86 -14 88 -12 2 1 -2 73 -9 159 -9 121 -9 193 0 314 32 419 150 727
380 990 l54 62 -69 -24 c-275 -97 -494 -103 -752 -20 -255 81 -385 92 -496 41
-33 -15 -90 -58 -149 -114 -90 -85 -178 -142 -218 -142 -23 0 -24 51 -2 158
67 328 269 566 549 648 166 48 432 54 625 15z"/>
</g>
</svg>
